<?xml version="1.0" encoding="UTF-8" standalone="no"?>
<svg width="1440" height="900" viewBox="0 0 1440 900" fill="none" xmlns="http://www.w3.org/2000/svg">
  <!-- Background -->
  <rect width="1440" height="900" fill="#121212"/>
  
  <!-- Grid pattern -->
  <path d="M0 0h1440v900H0z" fill="url(#grid)" opacity="0.03"/>
  
  <!-- Gradient overlay -->
  <rect width="1440" height="900" fill="url(#gradient)" opacity="0.1"/>
  
  <!-- Particles -->
  <g opacity="0.2">
    <circle cx="100" cy="100" r="2" fill="#7000FF"/>
    <circle cx="300" cy="200" r="3" fill="#FF0080"/>
    <circle cx="700" cy="150" r="2" fill="#7000FF"/>
    <circle cx="1100" cy="250" r="3" fill="#FF0080"/>
    <circle cx="1300" cy="300" r="2" fill="#7000FF"/>
    <circle cx="200" cy="400" r="3" fill="#FF0080"/>
    <circle cx="500" cy="500" r="2" fill="#7000FF"/>
    <circle cx="900" cy="450" r="3" fill="#FF0080"/>
    <circle cx="1200" cy="600" r="2" fill="#7000FF"/>
    <circle cx="400" cy="700" r="3" fill="#FF0080"/>
    <circle cx="600" cy="800" r="2" fill="#7000FF"/>
    <circle cx="1000" cy="750" r="3" fill="#FF0080"/>
    <circle cx="1350" cy="850" r="2" fill="#7000FF"/>
  </g>
  
  <!-- Definitions -->
  <defs>
    <pattern id="grid" patternUnits="userSpaceOnUse" width="40" height="40">
      <rect width="40" height="40" fill="none"/>
      <path d="M0 0h40M0 40V0M40 0v40" stroke="#FFFFFF" stroke-width="0.5"/>
    </pattern>
    <linearGradient id="gradient" x1="0" y1="0" x2="1440" y2="900">
      <stop offset="0%" stop-color="#7000FF"/>
      <stop offset="100%" stop-color="#FF0080"/>
    </linearGradient>
  </defs>
</svg> 