<?xml version="1.0" encoding="UTF-8" standalone="no"?>
<svg width="200" height="200" viewBox="0 0 200 200" fill="none" xmlns="http://www.w3.org/2000/svg">
  <circle cx="100" cy="100" r="95" fill="#FFDD00" opacity="0.8"/>
  <g transform="translate(40, 40)">
    <!-- Building/Office -->
    <rect x="20" y="30" width="80" height="70" rx="2" fill="#7000FF" opacity="0.8"/>
    
    <!-- Windows -->
    <rect x="30" y="40" width="10" height="10" fill="#FFFFFF"/>
    <rect x="50" y="40" width="10" height="10" fill="#FFFFFF"/>
    <rect x="70" y="40" width="10" height="10" fill="#FFFFFF"/>
    
    <rect x="30" y="60" width="10" height="10" fill="#FFFFFF"/>
    <rect x="50" y="60" width="10" height="10" fill="#FFFFFF"/>
    <rect x="70" y="60" width="10" height="10" fill="#FFFFFF"/>
    
    <rect x="30" y="80" width="10" height="10" fill="#FFFFFF"/>
    <rect x="50" y="80" width="10" height="10" fill="#FFFFFF"/>
    <rect x="70" y="80" width="10" height="10" fill="#FFFFFF"/>
    
    <!-- Door -->
    <rect x="45" y="90" width="20" height="10" fill="#FFFFFF"/>
    
    <!-- Business elements -->
    <circle cx="15" cy="15" r="10" stroke="#FF6B6B" stroke-width="2" fill="none"/>
    <path d="M11 15L15 19L20 12" stroke="#FF6B6B" stroke-width="2" stroke-linecap="round" stroke-linejoin="round"/>
    
    <circle cx="105" cy="15" r="10" stroke="#FF6B6B" stroke-width="2" fill="none"/>
    <path d="M100 15H110M105 10V20" stroke="#FF6B6B" stroke-width="2" stroke-linecap="round"/>
  </g>
</svg> 