<?xml version="1.0" encoding="UTF-8" standalone="no"?>
<svg width="200" height="200" viewBox="0 0 200 200" fill="none" xmlns="http://www.w3.org/2000/svg">
  <circle cx="100" cy="100" r="95" fill="#FFDD00" opacity="0.8"/>
  <g transform="translate(40, 40)">
    <!-- Baby rattle -->
    <circle cx="60" cy="30" r="15" fill="#FF9E9E"/>
    <rect x="55" y="45" width="10" height="40" rx="5" fill="#FF9E9E"/>
    <circle cx="60" cy="90" r="10" fill="#FF9E9E"/>
    
    <!-- Decorations -->
    <circle cx="50" cy="25" r="3" fill="#FFFFFF"/>
    <circle cx="70" cy="25" r="3" fill="#FFFFFF"/>
    
    <!-- Stars -->
    <path d="M30 50L35 60L25 60L30 50Z" fill="#7000FF"/>
    <path d="M90 50L95 60L85 60L90 50Z" fill="#7000FF"/>
    <path d="M30 80L35 90L25 90L30 80Z" fill="#7000FF"/>
    <path d="M90 80L95 90L85 90L90 80Z" fill="#7000FF"/>
    
    <!-- Baby footprints -->
    <circle cx="20" cy="40" r="3" fill="#FF6B6B"/>
    <circle cx="25" cy="35" r="2" fill="#FF6B6B"/>
    <circle cx="30" cy="35" r="2" fill="#FF6B6B"/>
    <circle cx="35" cy="35" r="2" fill="#FF6B6B"/>
    <rect x="20" y="43" width="3" height="6" rx="1.5" fill="#FF6B6B"/>
    
    <circle cx="100" cy="40" r="3" fill="#FF6B6B"/>
    <circle cx="95" cy="35" r="2" fill="#FF6B6B"/>
    <circle cx="90" cy="35" r="2" fill="#FF6B6B"/>
    <circle cx="85" cy="35" r="2" fill="#FF6B6B"/>
    <rect x="97" y="43" width="3" height="6" rx="1.5" fill="#FF6B6B"/>
  </g>
</svg> 