<?xml version="1.0" encoding="UTF-8" standalone="no"?>
<svg width="600" height="400" viewBox="0 0 600 400" fill="none" xmlns="http://www.w3.org/2000/svg">
  <!-- Background gradient -->
  <defs>
    <linearGradient id="bg-gradient" x1="0%" y1="0%" x2="100%" y2="100%">
      <stop offset="0%" style="stop-color:#00BFFF;stop-opacity:0.7" />
      <stop offset="100%" style="stop-color:#7000FF;stop-opacity:0.7" />
    </linearGradient>
  </defs>
  
  <!-- Background -->
  <rect width="600" height="400" rx="10" fill="url(#bg-gradient)" />
  
  <!-- Event decorative elements -->
  <circle cx="450" cy="100" r="80" fill="#FFFFFF" fill-opacity="0.1" />
  <circle cx="150" cy="300" r="100" fill="#FFFFFF" fill-opacity="0.05" />
  
  <!-- Event icon - Music notes -->
  <path d="M320 120 C320 120, 370 130, 370 180 C370 205, 350 225, 325 225 C300 225, 280 205, 280 180 C280 155, 300 135, 325 135" 
    stroke="#FFFFFF" stroke-width="6" fill="none" />
  <circle cx="280" cy="180" r="15" fill="#FFFFFF" />
  
  <path d="M250 150 C250 150, 300 160, 300 210 C300 235, 280 255, 255 255 C230 255, 210 235, 210 210 C210 185, 230 165, 255 165" 
    stroke="#FFFFFF" stroke-width="6" fill="none" />
  <circle cx="210" cy="210" r="15" fill="#FFFFFF" />
  
  <!-- Event text placeholder -->
  <rect x="200" y="340" width="200" height="20" rx="5" fill="#FFFFFF" fill-opacity="0.5" />
</svg> 