<?xml version="1.0" encoding="UTF-8" standalone="no"?>
<svg width="200" height="200" viewBox="0 0 200 200" fill="none" xmlns="http://www.w3.org/2000/svg">
  <circle cx="100" cy="100" r="95" fill="#FFDD00" opacity="0.8"/>
  <g transform="translate(40, 40)">
    <!-- Gift box -->
    <rect x="30" y="50" width="60" height="50" rx="5" fill="#FF6B6B"/>
    <rect x="55" y="50" width="10" height="50" fill="#FF9E9E"/>
    
    <!-- Gift box lid -->
    <rect x="20" y="40" width="80" height="15" rx="5" fill="#FF9E9E"/>
    <rect x="55" y="40" width="10" height="15" fill="#FFB6B6"/>
    
    <!-- Surprise explosion stars -->
    <path d="M20 20L25 30L15 30L20 20Z" fill="#FFFFFF"/>
    <path d="M40 10L45 20L35 20L40 10Z" fill="#FFFFFF"/>
    <path d="M60 5L65 15L55 15L60 5Z" fill="#FFFFFF"/>
    <path d="M80 15L85 25L75 25L80 15Z" fill="#FFFFFF"/>
    <path d="M95 30L100 40L90 40L95 30Z" fill="#FFFFFF"/>
    
    <!-- Confetti -->
    <circle cx="30" cy="25" r="2" fill="#7000FF"/>
    <circle cx="50" cy="15" r="2" fill="#FF6B6B"/>
    <circle cx="70" cy="20" r="2" fill="#7000FF"/>
    <circle cx="85" cy="35" r="2" fill="#FF6B6B"/>
  </g>
</svg> 